<?xml version="1.0" encoding="utf-8"?>
<!-- Generator: Adobe Illustrator 16.0.0, SVG Export Plug-In . SVG Version: 6.00 Build 0)  -->
<!DOCTYPE svg PUBLIC "-//W3C//DTD SVG 1.1//EN" "http://www.w3.org/Graphics/SVG/1.1/DTD/svg11.dtd">
<svg version="1.1" id="Layer_1" xmlns="http://www.w3.org/2000/svg" xmlns:xlink="http://www.w3.org/1999/xlink" x="0px" y="0px"
	 width="111.301px" height="56.3px" viewBox="0 0 111.301 56.3" enable-background="new 0 0 111.301 56.3" xml:space="preserve">
<g enable-background="new    ">
	<g enable-background="new    ">
		<g>
			<defs>
				<ellipse id="SVGID_1_" cx="-374.1" cy="28.3" rx="0" ry="28.2"/>
			</defs>
			<clipPath id="SVGID_2_">
				<use xlink:href="#SVGID_1_"  overflow="visible"/>
			</clipPath>
			<g clip-path="url(#SVGID_2_)">
				<g>
					<g>
						<g>
							<polyline fill="none" points="-374.1,-41.801 -374.1,-19.4 -374.1,3 -374.1,-19.4 -374.1,-41.801 							"/>
							<polyline fill="none" points="-374.1,5.9 -374.1,28.3 -374.1,50.699 -374.1,28.3 -374.1,5.9 							"/>
							<polyline fill="none" points="-374.1,53.5 -374.1,75.9 -374.1,98.3 -374.1,75.9 -374.1,53.5 							"/>
						</g>
					</g>
				</g>
			</g>
		</g>
	</g>
	<g enable-background="new    ">
		<g>
			<defs>
				<path id="SVGID_3_" d="M-374.1,56.4c0,0,0-12.6,0-28.2c0-15.6,0-28.199,0-28.199h912.6c0,0,0,12.6,0,28.199
					c0,15.601,0,28.2,0,28.2C264.801,56.4-100.3,56.4-374.1,56.4z"/>
			</defs>
			<clipPath id="SVGID_4_">
				<use xlink:href="#SVGID_3_"  overflow="visible"/>
			</clipPath>
			<g clip-path="url(#SVGID_4_)">
				<g id="XMLID_1_">
					<g>
						<path fill="#EB7077" d="M95,30.3h16.301c-5.701,1.899-7.5,5.7-8.5,16.5c-0.701,7.7-4.201,9.7-4.201,9.7
							C96,56.5,93.4,45.4,91.1,33.6C92,31.6,93.199,30.6,95,30.3z"/>
						<path fill="#EB7077" d="M98.5,56.4H82.199c2.9,0,4.9-5.5,6.102-12.5C89.1,39.199,89.9,35.8,91,33.5
							C93.301,45.3,95.9,56.4,98.5,56.4z"/>
						<path fill="#F6A2AD" d="M91,33.5c-1.199,2.199-2,5.699-2.699,10.399c-1.201,7-3.201,12.5-6.102,12.5
							c-3.1-0.7-5.6-12.5-8.898-30.5c-0.102-0.6-0.201-1.1-0.301-1.7C75.5,11.199,78.1,0,80.699,0h0.9c3.1,0.699,5.6,12.5,8.9,30.5
							C90.699,31.6,90.801,32.5,91,33.5z"/>
						<path fill="#EB7077" d="M65.301,0.1h15.398C78.1,0.1,75.4,11.3,73,24.3C70.699,12.1,68,0.1,65.301,0.1z"/>
						<path fill="#EB7077" d="M73,24.3c-0.199,1.3-0.5,2.6-0.699,4c-3.701,20.2-5.9,27.6-8.5,28.2c-2.9,0-5.701-13.101-8-25.9
							c0-0.2-0.101-0.4-0.101-0.6C55.8,29.4,55.9,28.9,56,28.3C59.699,8,61.9,0.699,64.4,0.1h0.9C68,0.1,70.699,12.1,73,24.3z"/>
						<path fill="#EB7077" d="M63.801,56.4H47.5c2.8,0,5.6-12.5,8.1-26.5c0,0.2,0.1,0.4,0.1,0.601C58.1,43.4,61,56.4,63.801,56.4z"
							/>
						<path fill="#F6A2AD" d="M55.7,30c-2.6,14-5.399,26.5-8.1,26.5C44.4,55.699,42,43.9,38.6,26c-0.1-0.601-0.2-1.101-0.3-1.7
							c2.5-13,5.1-24.2,7.7-24.2h0.9C50,0.8,52.4,12.4,55.7,30z"/>
						<path fill="#EB7077" d="M30.6,0.1H46c-2.6,0-5.2,11.2-7.7,24.2C36,12.1,33.3,0.1,30.6,0.1z"/>
						<path fill="#EB7077" d="M38.3,24.3c-0.2,1.3-0.5,2.6-0.7,4c-3.7,20.2-5.9,27.6-8.5,28.2c-2.9,0-1.8-0.5-3.6-8.601
							C23.7,39.8,22.3,35,20.4,32.5c0.3-1.4,0.5-2.801,0.8-4.2C25,8,27.2,0.699,29.7,0.1h0.9C33.3,0.1,36,12.1,38.3,24.3z"/>
						<path fill="#EB7077" d="M29.1,56.4H12.8c2.6,0,5.2-11.1,7.7-24c1.8,2.5,3.2,7.3,5.1,15.4C27.4,55.9,26.2,56.4,29.1,56.4z"/>
						<path fill="#F6A2AD" d="M20.5,32.4c-2.5,12.9-5.1,24-7.7,24C12.5,56,10.7,56.4,9,46.4c-1.5-9.2-4.2-15-8.6-16.1h16.3
							C18.3,30.4,19.4,31,20.5,32.4z"/>
					</g>
				</g>
			</g>
		</g>
	</g>
</g>
<path fill="none" d="M194.801,54.9"/>
<g enable-background="new    ">
	<g enable-background="new    ">
		<g>
			<defs>
				<ellipse id="SVGID_5_" cx="-374.1" cy="28.2" rx="0" ry="28.2"/>
			</defs>
			<clipPath id="SVGID_6_">
				<use xlink:href="#SVGID_5_"  overflow="visible"/>
			</clipPath>
			<g clip-path="url(#SVGID_6_)">
				<g>
					<g>
						<g>
							<polyline fill="none" points="-374.1,-41.9 -374.1,-19.5 -374.1,2.9 -374.1,-19.5 -374.1,-41.9 							"/>
							<polyline fill="none" points="-374.1,5.8 -374.1,28.199 -374.1,50.6 -374.1,28.199 -374.1,5.8 							"/>
							<polyline fill="none" points="-374.1,53.4 -374.1,75.8 -374.1,98.199 -374.1,75.8 -374.1,53.4 							"/>
						</g>
					</g>
				</g>
			</g>
		</g>
	</g>
	<g enable-background="new    ">
		<g>
			<defs>
				<path id="SVGID_7_" d="M-374.1,56.3c0,0,0-12.601,0-28.2s0-28.2,0-28.2h912.6c0,0,0,12.601,0,28.2s0,28.2,0,28.2
					C264.801,56.3-100.3,56.3-374.1,56.3z"/>
			</defs>
			<clipPath id="SVGID_8_">
				<use xlink:href="#SVGID_7_"  overflow="visible"/>
			</clipPath>
			<path clip-path="url(#SVGID_8_)" fill="#897E7F" d="M95,30.199h16.301c-5.701,1.9-7.5,5.7-8.5,16.5
				c-0.701,7.7-4.201,9.7-4.201,9.7C96,56.4,93.4,45.3,91.1,33.5C92,31.5,93.199,30.5,95,30.199z"/>
			<path clip-path="url(#SVGID_8_)" fill="#897E7F" d="M98.5,56.3H82.199c2.9,0,4.9-5.5,6.102-12.5C89.1,39.1,89.9,35.699,91,33.4
				C93.301,45.199,95.9,56.3,98.5,56.3z"/>
			<path clip-path="url(#SVGID_8_)" fill="#C1BDBD" d="M91,33.4c-1.199,2.2-2,5.7-2.699,10.4c-1.201,7-3.201,12.5-6.102,12.5
				c-3.1-0.7-5.6-12.5-8.898-30.5C73.199,25.199,73.1,24.699,73,24.1C75.5,11.199,78.1,0,80.699,0h0.9c3.1,0.699,5.6,12.5,8.9,30.5
				C90.699,31.4,90.801,32.4,91,33.4z"/>
			<path clip-path="url(#SVGID_8_)" fill="#897E7F" d="M65.301,0h15.398C78.1,0,75.4,11.199,73,24.199C70.699,12,68,0,65.301,0z"/>
			<path clip-path="url(#SVGID_8_)" fill="#897E7F" d="M73,24.199c-0.199,1.301-0.5,2.601-0.699,4c-3.701,20.2-5.9,27.601-8.5,28.2
				c-2.9,0-5.701-13.1-8-25.899c0-0.2-0.101-0.4-0.101-0.601c0.101-0.6,0.2-1.1,0.3-1.7C59.699,7.9,61.9,0.6,64.4,0h0.9
				C68,0,70.699,12,73,24.199z"/>
			<path clip-path="url(#SVGID_8_)" fill="#897E7F" d="M63.801,56.3H47.5c2.8,0,5.6-12.5,8.1-26.5c0,0.2,0.1,0.399,0.1,0.6
				C58.1,43.3,61,56.3,63.801,56.3z"/>
			<path clip-path="url(#SVGID_8_)" fill="#C1BDBD" d="M55.7,29.9c-2.6,14-5.399,26.5-8.1,26.5c-3.1-0.7-5.6-12.5-8.9-30.5
				c-0.1-0.6-0.2-1.1-0.3-1.7C40.8,11.199,43.4,0,46,0h0.9C50,0.699,52.4,12.199,55.7,29.9z"/>
			<path clip-path="url(#SVGID_8_)" fill="#897E7F" d="M30.6,0H46c-2.6,0-5.2,11.199-7.7,24.199C36,12,33.3,0,30.6,0z"/>
			<path clip-path="url(#SVGID_8_)" fill="#897E7F" d="M38.3,24.199c-0.2,1.301-0.5,2.601-0.7,4c-3.7,20.2-5.9,27.601-8.5,28.2
				c-2.9,0-1.8-0.5-3.6-8.6c-1.8-8.101-3.2-12.9-5.1-15.4c0.3-1.399,0.5-2.8,0.8-4.2C25,7.9,27.2,0.6,29.7,0h0.9
				C33.3,0,36,12,38.3,24.199z"/>
			<path clip-path="url(#SVGID_8_)" fill="#897E7F" d="M29.1,56.3H12.8c2.6,0,5.2-11.101,7.7-24c1.8,2.5,3.2,7.3,5.1,15.399
				C27.4,55.8,26.2,56.3,29.1,56.3z"/>
			<path clip-path="url(#SVGID_8_)" fill="#C1BDBD" d="M20.5,32.3c-2.5,12.899-5.1,24-7.7,24c-0.3-0.4-2.101,0-3.8-10
				c-1.5-9.2-4.2-15-8.6-16.101h16.3C18.3,30.199,19.4,30.9,20.5,32.3z"/>
		</g>
	</g>
</g>
</svg>
